<svg xmlns="http://www.w3.org/2000/svg" xmlns:xlink="http://www.w3.org/1999/xlink" version="1.1" width="258px" height="208px" viewBox="-0.5 -0.5 258 208"><defs/><g><path d="M 10.12 45.88 L 45.88 10.12" fill="none" stroke="rgb(0, 0, 0)" stroke-miterlimit="10" pointer-events="stroke"/><ellipse cx="8" cy="48" rx="3" ry="3" fill="rgb(0, 0, 0)" stroke="rgb(0, 0, 0)" pointer-events="all"/><ellipse cx="48" cy="8" rx="3" ry="3" fill="rgb(0, 0, 0)" stroke="rgb(0, 0, 0)" pointer-events="all"/><path d="M 50.12 85.88 L 85.88 50.12" fill="none" stroke="rgb(0, 0, 0)" stroke-miterlimit="10" pointer-events="stroke"/><ellipse cx="48" cy="88" rx="3" ry="3" fill="rgb(0, 0, 0)" stroke="rgb(0, 0, 0)" pointer-events="all"/><ellipse cx="88" cy="48" rx="3" ry="3" fill="rgb(0, 0, 0)" stroke="rgb(0, 0, 0)" pointer-events="all"/><path d="M 45.88 85.88 L 10.12 50.12" fill="none" stroke="rgb(0, 0, 0)" stroke-miterlimit="10" pointer-events="stroke"/><ellipse cx="48" cy="88" rx="3" ry="3" fill="rgb(0, 0, 0)" stroke="rgb(0, 0, 0)" pointer-events="all"/><ellipse cx="8" cy="48" rx="3" ry="3" fill="rgb(0, 0, 0)" stroke="rgb(0, 0, 0)" pointer-events="all"/><path d="M 85.88 45.88 L 50.12 10.12" fill="none" stroke="rgb(0, 0, 0)" stroke-miterlimit="10" pointer-events="stroke"/><ellipse cx="88" cy="48" rx="3" ry="3" fill="rgb(0, 0, 0)" stroke="rgb(0, 0, 0)" pointer-events="all"/><ellipse cx="48" cy="8" rx="3" ry="3" fill="rgb(0, 0, 0)" stroke="rgb(0, 0, 0)" pointer-events="all"/><path d="M 245 48 L 91 48" fill="none" stroke="rgb(0, 0, 0)" stroke-miterlimit="10" pointer-events="stroke"/><ellipse cx="248" cy="48" rx="3" ry="3" fill="rgb(0, 0, 0)" stroke="rgb(0, 0, 0)" pointer-events="all"/><ellipse cx="88" cy="48" rx="3" ry="3" fill="rgb(0, 0, 0)" stroke="rgb(0, 0, 0)" pointer-events="all"/><path d="M 248 51 L 248 195" fill="none" stroke="rgb(0, 0, 0)" stroke-miterlimit="10" pointer-events="stroke"/><ellipse cx="248" cy="48" rx="3" ry="3" fill="rgb(0, 0, 0)" stroke="rgb(0, 0, 0)" pointer-events="all"/><ellipse cx="248" cy="198" rx="3" ry="3" fill="rgb(0, 0, 0)" stroke="rgb(0, 0, 0)" pointer-events="all"/><path d="M 8 51 L 8 195" fill="none" stroke="rgb(0, 0, 0)" stroke-miterlimit="10" pointer-events="stroke"/><ellipse cx="8" cy="48" rx="3" ry="3" fill="rgb(0, 0, 0)" stroke="rgb(0, 0, 0)" pointer-events="all"/><ellipse cx="8" cy="198" rx="3" ry="3" fill="rgb(0, 0, 0)" stroke="rgb(0, 0, 0)" pointer-events="all"/><path d="M 245 198 L 11 198" fill="none" stroke="rgb(0, 0, 0)" stroke-miterlimit="10" pointer-events="stroke"/><ellipse cx="248" cy="198" rx="3" ry="3" fill="rgb(0, 0, 0)" stroke="rgb(0, 0, 0)" pointer-events="all"/><ellipse cx="8" cy="198" rx="3" ry="3" fill="rgb(0, 0, 0)" stroke="rgb(0, 0, 0)" pointer-events="all"/><path d="M 8 48 L 23.5 32.5" fill="none" stroke="rgb(0, 0, 0)" stroke-miterlimit="10" pointer-events="stroke"/><path d="M 27.21 28.79 L 24.73 36.22 L 23.5 32.5 L 19.78 31.27 Z" fill="rgb(0, 0, 0)" stroke="rgb(0, 0, 0)" stroke-miterlimit="10" pointer-events="all"/><path d="M 48 88 L 63.5 72.5" fill="none" stroke="rgb(0, 0, 0)" stroke-miterlimit="10" pointer-events="stroke"/><path d="M 67.21 68.79 L 64.73 76.22 L 63.5 72.5 L 59.78 71.27 Z" fill="rgb(0, 0, 0)" stroke="rgb(0, 0, 0)" stroke-miterlimit="10" pointer-events="all"/><path d="M 8 48 L 23.5 63.5" fill="none" stroke="rgb(0, 0, 0)" stroke-miterlimit="10" pointer-events="stroke"/><path d="M 27.21 67.21 L 19.78 64.73 L 23.5 63.5 L 24.73 59.78 Z" fill="rgb(0, 0, 0)" stroke="rgb(0, 0, 0)" stroke-miterlimit="10" pointer-events="all"/><path d="M 88 48 L 72.5 32.5" fill="none" stroke="rgb(0, 0, 0)" stroke-miterlimit="10" pointer-events="stroke"/><path d="M 68.79 28.79 L 76.22 31.27 L 72.5 32.5 L 71.27 36.22 Z" fill="rgb(0, 0, 0)" stroke="rgb(0, 0, 0)" stroke-miterlimit="10" pointer-events="all"/><path d="M 248 198 L 248 134.37" fill="none" stroke="rgb(0, 0, 0)" stroke-miterlimit="10" pointer-events="stroke"/><path d="M 248 129.12 L 251.5 136.12 L 248 134.37 L 244.5 136.12 Z" fill="rgb(0, 0, 0)" stroke="rgb(0, 0, 0)" stroke-miterlimit="10" pointer-events="all"/><path d="M 8 198 L 121.63 198" fill="none" stroke="rgb(0, 0, 0)" stroke-miterlimit="10" pointer-events="stroke"/><path d="M 126.88 198 L 119.88 201.5 L 121.63 198 L 119.88 194.5 Z" fill="rgb(0, 0, 0)" stroke="rgb(0, 0, 0)" stroke-miterlimit="10" pointer-events="all"/></g></svg>