<svg xmlns="http://www.w3.org/2000/svg" xmlns:xlink="http://www.w3.org/1999/xlink" version="1.1" width="421px" height="262px" viewBox="-0.5 -0.5 421 262"><defs/><g><ellipse cx="360" cy="10" rx="2.9999999999999996" ry="2.9999999999999996" fill="rgb(0, 0, 0)" stroke="none" pointer-events="all"/><rect x="350" y="0" width="20" height="20" fill="none" stroke="none" pointer-events="all"/><ellipse cx="290" cy="80" rx="2.9999999999999996" ry="2.9999999999999996" fill="rgb(0, 0, 0)" stroke="none" pointer-events="all"/><rect x="280" y="70" width="20" height="20" fill="none" stroke="none" pointer-events="all"/><ellipse cx="210" cy="160" rx="2.9999999999999996" ry="2.9999999999999996" fill="rgb(0, 0, 0)" stroke="none" pointer-events="all"/><rect x="200" y="150" width="20" height="20" fill="none" stroke="none" pointer-events="all"/><ellipse cx="410" cy="250" rx="2.9999999999999996" ry="2.9999999999999996" fill="rgb(0, 0, 0)" stroke="none" pointer-events="all"/><rect x="400" y="240" width="20" height="20" fill="none" stroke="none" pointer-events="all"/><ellipse cx="130" cy="80" rx="2.9999999999999996" ry="2.9999999999999996" fill="rgb(0, 0, 0)" stroke="none" pointer-events="all"/><rect x="120" y="70" width="20" height="20" fill="none" stroke="none" pointer-events="all"/><ellipse cx="180" cy="10" rx="2.9999999999999996" ry="2.9999999999999996" fill="rgb(0, 0, 0)" stroke="none" pointer-events="all"/><rect x="170" y="0" width="20" height="20" fill="none" stroke="none" pointer-events="all"/><ellipse cx="240" cy="10" rx="2.9999999999999996" ry="2.9999999999999996" fill="rgb(0, 0, 0)" stroke="none" pointer-events="all"/><rect x="230" y="0" width="20" height="20" fill="none" stroke="none" pointer-events="all"/><ellipse cx="50" cy="80" rx="2.9999999999999996" ry="2.9999999999999996" fill="rgb(0, 0, 0)" stroke="none" pointer-events="all"/><rect x="40" y="70" width="20" height="20" fill="none" stroke="none" pointer-events="all"/><ellipse cx="10" cy="250" rx="2.9999999999999996" ry="2.9999999999999996" fill="rgb(0, 0, 0)" stroke="none" pointer-events="all"/><rect x="0" y="240" width="20" height="20" fill="none" stroke="none" pointer-events="all"/><path d="M 10 250 L 130 80" fill="none" stroke="rgb(0, 0, 0)" stroke-miterlimit="10" pointer-events="stroke"/><path d="M 130 80 L 210 160" fill="none" stroke="rgb(0, 0, 0)" stroke-miterlimit="10" pointer-events="stroke"/><path d="M 50 80 L 130 80" fill="none" stroke="rgb(0, 0, 0)" stroke-miterlimit="10" pointer-events="stroke"/><path d="M 210 160 L 290 80" fill="none" stroke="rgb(0, 0, 0)" stroke-miterlimit="10" pointer-events="stroke"/><path d="M 290 80 L 410 250" fill="none" stroke="rgb(0, 0, 0)" stroke-miterlimit="10" pointer-events="stroke"/><path d="M 130 80 L 180 10" fill="none" stroke="rgb(0, 0, 0)" stroke-miterlimit="10" pointer-events="stroke"/><path d="M 240 10 L 290 80" fill="none" stroke="rgb(0, 0, 0)" stroke-miterlimit="10" pointer-events="stroke"/><path d="M 290 80 L 360 10" fill="none" stroke="rgb(0, 0, 0)" stroke-miterlimit="10" pointer-events="stroke"/></g></svg>