<svg xmlns="http://www.w3.org/2000/svg" xmlns:xlink="http://www.w3.org/1999/xlink" version="1.1" width="200px" height="98px" viewBox="-0.5 -0.5 200 98"><defs/><g><path d="M 73 8 L 187 8" fill="none" stroke="rgb(0, 0, 0)" stroke-miterlimit="10" pointer-events="stroke"/><ellipse cx="70" cy="8" rx="3" ry="3" fill="rgb(0, 0, 0)" stroke="rgb(0, 0, 0)" pointer-events="all"/><ellipse cx="190" cy="8" rx="3" ry="3" fill="rgb(0, 0, 0)" stroke="rgb(0, 0, 0)" pointer-events="all"/><path d="M 73 88 L 187 88" fill="none" stroke="rgb(0, 0, 0)" stroke-miterlimit="10" pointer-events="stroke"/><ellipse cx="70" cy="88" rx="3" ry="3" fill="rgb(0, 0, 0)" stroke="rgb(0, 0, 0)" pointer-events="all"/><ellipse cx="190" cy="88" rx="3" ry="3" fill="rgb(0, 0, 0)" stroke="rgb(0, 0, 0)" pointer-events="all"/><path d="M 190 85 L 190 11" fill="none" stroke="rgb(0, 0, 0)" stroke-miterlimit="10" pointer-events="stroke"/><ellipse cx="190" cy="88" rx="3" ry="3" fill="rgb(0, 0, 0)" stroke="rgb(0, 0, 0)" pointer-events="all"/><ellipse cx="190" cy="8" rx="3" ry="3" fill="rgb(0, 0, 0)" stroke="rgb(0, 0, 0)" pointer-events="all"/><path d="M 70 85 L 70 11" fill="none" stroke="rgb(0, 0, 0)" stroke-miterlimit="10" pointer-events="stroke"/><ellipse cx="70" cy="88" rx="3" ry="3" fill="rgb(0, 0, 0)" stroke="rgb(0, 0, 0)" pointer-events="all"/><ellipse cx="70" cy="8" rx="3" ry="3" fill="rgb(0, 0, 0)" stroke="rgb(0, 0, 0)" pointer-events="all"/><path d="M 67 88 Q 0 88 0 48 Q 0 8 67 8" fill="none" stroke="rgb(0, 0, 0)" stroke-miterlimit="10" pointer-events="stroke"/><ellipse cx="70" cy="88" rx="3" ry="3" fill="rgb(0, 0, 0)" stroke="rgb(0, 0, 0)" pointer-events="all"/><ellipse cx="70" cy="8" rx="3" ry="3" fill="rgb(0, 0, 0)" stroke="rgb(0, 0, 0)" pointer-events="all"/></g></svg>